<svg width="512" height="512" viewBox="0 0 512 512" fill="none" xmlns="http://www.w3.org/2000/svg">
<path d="M0 208.15C0 120.806 0 77.1343 22.4968 46.6761C29.3066 37.4564 37.4564 29.3066 46.6761 22.4968C77.1343 0 120.806 0 208.15 0H303.85C391.194 0 434.866 0 465.324 22.4968C474.544 29.3066 482.693 37.4564 489.503 46.6761C512 77.1343 512 120.806 512 208.15V303.85C512 391.194 512 434.866 489.503 465.324C482.693 474.544 474.544 482.693 465.324 489.503C434.866 512 391.194 512 303.85 512H208.15C120.806 512 77.1343 512 46.6761 489.503C37.4564 482.693 29.3066 474.544 22.4968 465.324C0 434.866 0 391.194 0 303.85V208.15Z" fill="var(--color-logo, #B700FF)"/>
<path d="M176 366V132.464C176 130.418 178.709 129.692 179.732 131.464L311.409 359.536C312.432 361.308 315.141 360.582 315.141 358.536V125" stroke="#0A0A0A" stroke-width="92" stroke-linecap="round"/>
</svg>
